<?xml version="1.0" encoding="UTF-8" standalone="no"?>
<!-- Created with Inkscape (http://www.inkscape.org/) -->

<svg
   width="297mm"
   height="210mm"
   viewBox="0 0 297 210"
   version="1.1"
   id="svg5"
   inkscape:version="1.3.2 (091e20ef0f, 2023-11-25, custom)"
   sodipodi:docname="apple_logo_v3.svg"
   xmlns:inkscape="http://www.inkscape.org/namespaces/inkscape"
   xmlns:sodipodi="http://sodipodi.sourceforge.net/DTD/sodipodi-0.dtd"
   xmlns="http://www.w3.org/2000/svg"
   xmlns:svg="http://www.w3.org/2000/svg">
  <sodipodi:namedview
     id="namedview7"
     pagecolor="#ffffff"
     bordercolor="#666666"
     borderopacity="1.0"
     inkscape:pageshadow="2"
     inkscape:pageopacity="0.0"
     inkscape:pagecheckerboard="0"
     inkscape:document-units="mm"
     showgrid="false"
     inkscape:zoom="0.57600353"
     inkscape:cx="604.16297"
     inkscape:cy="323.78274"
     inkscape:current-layer="layer1"
     inkscape:showpageshadow="2"
     inkscape:deskcolor="#d1d1d1"
     showguides="true">
    <inkscape:page
       x="0"
       y="0"
       width="297"
       height="210"
       id="page9"
       margin="0"
       bleed="0" />
    <inkscape:page
       x="364.36716"
       y="131.10188"
       width="2.8700337"
       height="0.64554542"
       id="page1" />
  </sodipodi:namedview>
  <defs
     id="defs2" />
  <g
     inkscape:label="Layer 1"
     inkscape:groupmode="layer"
     id="layer1"
     transform="translate(136.05065)">
    <path
       d="m -98.470348,24.134818 c -0.195783,-0.005 -0.391817,-0.01 -0.589647,-0.006 -0.0067,1.3e-4 -0.01333,-1.6e-4 -0.02003,0 h -3.19e-4 v 3.1e-4 c -2.023166,0.0489 -3.998346,0.55524 -5.759306,1.4707 0,0 -3.2e-4,3.1e-4 -3.2e-4,3.1e-4 -0.25158,0.1308 -0.49876,0.26992 -0.74111,0.41728 -0.58864,-0.31185 -1.20278,-0.57159 -1.83182,-0.78984 -1.47008,-0.51005 -3.03131,-0.76652 -4.60827,-0.73818 -0.81471,0.0152 -1.60881,0.10338 -2.37605,0.25761 -0.8865,0.17821 -1.73133,0.45366 -2.53577,0.79739 -0.4628,0.19774 -0.90921,0.42136 -1.33964,0.66827 -0.24799,0.14226 -0.48962,0.29188 -0.72587,0.44939 -0.4916,0.32776 -0.96439,0.67872 -1.40029,1.06728 -0.1922,0.17133 -0.3795,0.34729 -0.56075,0.52844 -0.1812,0.1811 -0.3562,0.36724 -0.52392,0.55993 -1.36099,2.1391 -2.31977,4.52867 -2.82409,7.04044 -0.008,0.22596 -0.0109,0.45319 -0.005,0.68212 0.008,0.29468 0.0283,0.5896 0.0603,0.88273 0.0319,0.29229 0.0759,0.58375 0.13082,0.87329 0,0 0,0 0,0 -5.9e-4,-0.004 -0.002,-0.008 -0.003,-0.0116 0,0 0,-3.2e-4 0,-3.2e-4 -0.0494,-0.26167 -0.0872,-0.52493 -0.1178,-0.78889 0,0 0,-3.1e-4 0,-3.1e-4 -0.003,-0.0241 -0.008,-0.048 -0.0108,-0.0721 0,0 0,-3.1e-4 0,-3.1e-4 -0.002,-0.0198 -0.002,-0.04 -0.004,-0.0599 -0.0284,-0.27359 -0.0487,-0.548 -0.0565,-0.8229 -0.005,-0.22723 -0.002,-0.45246 0.005,-0.67676 6e-5,-0.002 -6e-5,-0.004 0,-0.005 -0.29794,1.37868 -0.45659,2.78613 -0.47312,4.1992 0.0145,4.1573 1.25737,8.20982 3.5598,11.60587 -0.001,-0.004 -0.002,-0.009 -0.004,-0.0129 5.2e-4,0.002 0.001,0.004 0.002,0.005 -5.4e-4,-0.002 -0.001,-0.004 -0.002,-0.006 0.001,0.004 0.003,0.009 0.004,0.0135 0.71837,1.06223 1.53342,2.05028 2.43353,2.94989 0.99957,0.60657 2.21797,0.97672 3.54455,1.00933 0.21297,-0.006 0.42565,-0.0209 0.63696,-0.0447 0.27467,-0.013 0.54661,-0.0455 0.81636,-0.0879 0.22116,-0.0347 0.44054,-0.0778 0.65664,-0.13069 0.21621,-0.0529 0.42944,-0.11555 0.63824,-0.18864 0.17722,-0.16543 0.36326,-0.32434 0.55726,-0.47648 0.58235,-0.45665 1.23777,-0.85192 1.94961,-1.17435 1.4946,-0.68132 3.19429,-1.02193 4.91309,-0.98445 1.51442,0.0384 2.99389,0.36918 4.31171,0.96398 0.916699,0.41186 1.739893,0.94419 2.434482,1.57462 0.533111,0.19557 1.095538,0.32898 1.672097,0.39649 0.05407,0.009 0.109465,0.0116 0.163844,0.0195 0.182031,0.0266 0.364481,0.0525 0.548687,0.0658 0.254095,0.006 0.50516,-2.4e-4 0.752219,-0.0189 0.247059,-0.0187 0.490474,-0.0494 0.729042,-0.0913 0.477331,-0.0839 0.936462,-0.21283 1.371083,-0.3798 0.867563,-0.60602 1.686536,-1.28363 2.44877,-2.0259 0.254107,-0.24747 0.502088,-0.50241 0.743328,-0.76401 0.06783,-0.0926 0.135032,-0.1858 0.201313,-0.27965 0,0 0,-3.1e-4 0,-3.1e-4 1.430697,-2.0189 2.466756,-4.28788 3.095574,-6.6789 a 9.7280277,9.6318033 0 0 1 -6.845251,-9.1416 9.7280277,9.6318033 0 0 1 4.207555,-7.86962 c -0.08052,-0.0892 -0.154216,-0.18398 -0.237511,-0.27084 -0.247716,-0.25831 -0.507562,-0.50597 -0.779211,-0.74228 -0.848141,-0.73777 -1.799271,-1.37121 -2.836786,-1.8697 -0.05106,-0.0245 -0.104143,-0.0457 -0.155591,-0.0696 -0.16562,-0.0769 -0.331497,-0.15336 -0.501055,-0.22359 -0.09546,-0.0396 -0.193565,-0.0741 -0.290225,-0.11149 -0.130952,-0.0506 -0.261289,-0.10238 -0.394368,-0.14895 -0.105507,-0.0369 -0.21327,-0.0693 -0.320068,-0.10361 -0.125926,-0.0405 -0.251477,-0.0819 -0.379123,-0.11873 -0.114669,-0.0331 -0.231378,-0.0616 -0.347375,-0.0916 -0.12305,-0.0319 -0.24575,-0.0645 -0.370238,-0.0929 -0.119812,-0.0274 -0.241209,-0.0505 -0.362299,-0.0746 -0.123567,-0.0246 -0.24698,-0.0497 -0.371824,-0.0709 -0.121453,-0.0206 -0.24414,-0.0378 -0.366742,-0.0551 -0.1289,-0.0182 -0.257916,-0.0356 -0.388021,-0.0501 -0.119873,-0.0133 -0.240496,-0.0239 -0.361347,-0.034 -0.135597,-0.0113 -0.271581,-0.0214 -0.408334,-0.0286 -0.119701,-0.006 -0.239864,-0.0107 -0.360395,-0.0138 z"
       style="fill:none;stroke:#000000;stroke-width:2"
       id="path20" />
    <path
       d="m -93.33403,11.363098 a 10.989843,9.835447 0 0 0 -10.8969,8.99138 10.989843,9.835447 0 0 0 1.2771,0.11243 10.989843,9.835447 0 0 0 10.90102,-9.03107 10.989843,9.835447 0 0 0 -1.28122,-0.0727 z"
       style="fill:none;stroke:#000000;stroke-width:2"
       id="path21" />
    <path
       d="m -37.497577,8.2588694 c -5.466316,0.152397 -9.896878,3.8830786 -10.39488,8.7529886 -0.01296,0.37798 -0.0012,0.75701 0.03429,1.13467 5.442025,-0.17905 9.838566,-3.90317 10.3336,-8.7529896 0.03343,-0.377014 0.0424,-0.755866 0.02697,-1.134669 z"
       style="stroke:#000000;stroke-width:2"
       id="path9" />
    <path
       d="m -42.348752,21.686578 c -0.133871,-0.001 -0.268147,-9.1e-4 -0.40294,0.002 l -3.19e-4,3.1e-4 c -1.141044,0.0276 -2.266572,0.20179 -3.347369,0.51081 0.0061,0.008 0.0118,0.0168 0.01776,0.0252 -0.0087,-0.008 -0.01739,-0.0155 -0.02605,-0.0233 -1.109916,0.31811 -2.172562,0.779 -3.155262,1.37558 -1.967403,-1.04063 -4.195057,-1.56847 -6.450245,-1.52801 -3.263958,0.0609 -6.199449,1.28975 -8.390654,3.23994 -0.38501,0.34265 -0.750824,0.70318 -1.086899,1.08869 -1.36315,2.13907 -2.32306,4.52865 -2.828213,7.04043 -0.298323,1.37847 -0.457497,2.78573 -0.474063,4.19856 0.01444,4.15752 1.259615,8.21003 3.565827,11.60619 -0.0012,-0.004 -0.0025,-0.009 -0.0037,-0.0132 0.0012,0.004 0.0025,0.009 0.0043,0.0132 0.719523,1.06232 1.53578,2.05024 2.437342,2.94989 1.001127,0.60658 2.221319,0.97673 3.549949,1.00933 0.213307,-0.006 0.42627,-0.0209 0.637912,-0.0447 0.275097,-0.013 0.547465,-0.0455 0.817634,-0.0879 0.443216,-0.0694 0.878863,-0.17318 1.297096,-0.31933 0.710436,-0.66214 1.560095,-1.22094 2.51069,-1.65083 1.49691,-0.68131 3.199244,-1.02192 4.920712,-0.98446 1.516764,0.0384 2.998835,0.36919 4.318685,0.96399 0.918119,0.41186 1.742302,0.94419 2.437973,1.57462 0.533941,0.19557 1.097492,0.32898 1.674954,0.39649 0.05413,0.009 0.109723,0.0116 0.164163,0.0195 0.182315,0.0266 0.364832,0.0525 0.549321,0.0658 1.018387,0.025 1.986193,-0.15608 2.856792,-0.49002 1.158697,-0.80813 2.230701,-1.74354 3.19718,-2.7899 0.06798,-0.0927 0.135198,-0.18607 0.201632,-0.27997 0.943092,-1.32875 1.716731,-2.76573 2.317629,-4.27352 h -3.2e-4 c 0.160655,-0.40309 0.30711,-0.81195 0.442314,-1.22473 -0.753067,-0.58152 -1.415551,-1.26966 -1.966125,-2.04228 -1.192947,-1.62538 -1.842675,-3.57948 -1.858172,-5.58864 0.01604,-1.99849 0.659541,-3.9426 1.841342,-5.5628 0.49265,-0.70247 1.077602,-1.33686 1.739416,-1.88639 -0.217546,-0.48465 -0.470775,-0.95064 -0.752224,-1.39985 h 3.19e-4 c -0.226272,-0.36114 -0.465122,-0.71448 -0.729361,-1.04995 -0.01125,0.004 -0.02304,0.007 -0.03429,0.0113 0.01112,-0.004 0.02255,-0.008 0.03367,-0.012 -0.470387,-0.59701 -0.997047,-1.15255 -1.575253,-1.65681 -0.0065,-0.006 -0.01198,-0.012 -0.01843,-0.0176 -0.849462,-0.73777 -1.802115,-1.37122 -2.841234,-1.86971 -1.684927,-0.80829 -3.58485,-1.27372 -5.592924,-1.29559 z m 5.809794,5.62391 c 0.0129,0.001 0.02581,0.003 0.03871,0.004 0.0102,-1.1e-4 0.02034,-7.3e-4 0.03048,-9.7e-4 -0.01002,1.4e-4 -0.01985,0.001 -0.02986,0.002 -0.01272,-0.001 -0.02538,-0.002 -0.0381,-0.004 -4.24e-4,-2.2e-4 -6.14e-4,-4.8e-4 -0.0012,-6.1e-4 z m -31.415491,7.73515 c 0.01358,0.0994 0.03078,0.19832 0.0451,0.2976 0.02452,0.17096 0.04461,0.34244 0.07684,0.51238 -6.15e-4,-0.004 -0.0018,-0.008 -0.0025,-0.0119 -0.0314,-0.16618 -0.05069,-0.33389 -0.07462,-0.50104 -0.01419,-0.0991 -0.03121,-0.19783 -0.04479,-0.29698 z"
       style="stroke:#000000;stroke-width:2"
       id="path8" />
  </g>
</svg>
