<?xml version="1.0" encoding="UTF-8" standalone="no"?>
<!-- Created with Inkscape (http://www.inkscape.org/) -->

<svg
   width="297mm"
   height="210mm"
   viewBox="0 0 297 210"
   version="1.1"
   id="svg5"
   inkscape:version="1.3.2 (091e20ef0f, 2023-11-25, custom)"
   sodipodi:docname="apple_logo.svg"
   xmlns:inkscape="http://www.inkscape.org/namespaces/inkscape"
   xmlns:sodipodi="http://sodipodi.sourceforge.net/DTD/sodipodi-0.dtd"
   xmlns="http://www.w3.org/2000/svg"
   xmlns:svg="http://www.w3.org/2000/svg">
  <sodipodi:namedview
     id="namedview7"
     pagecolor="#ffffff"
     bordercolor="#666666"
     borderopacity="1.0"
     inkscape:pageshadow="2"
     inkscape:pageopacity="0.0"
     inkscape:pagecheckerboard="0"
     inkscape:document-units="mm"
     showgrid="false"
     inkscape:zoom="0.814592"
     inkscape:cx="947.7137"
     inkscape:cy="653.70148"
     inkscape:current-layer="layer1"
     inkscape:showpageshadow="2"
     inkscape:deskcolor="#d1d1d1">
    <inkscape:page
       x="0"
       y="0"
       width="297"
       height="210"
       id="page9"
       margin="0"
       bleed="0" />
    <inkscape:page
       x="-49.12175"
       y="219.58614"
       width="379.30334"
       height="313.53046"
       id="page10"
       margin="0"
       bleed="0" />
    <inkscape:page
       x="379.4025"
       y="123.93952"
       width="398.57962"
       height="287.26326"
       id="page1" />
  </sodipodi:namedview>
  <defs
     id="defs2" />
  <g
     inkscape:label="Layer 1"
     inkscape:groupmode="layer"
     id="layer1">
    <path
       d="m 449.8298,147.38744 c -3.30033,0.0212 -6.53145,1.02423 -9.33844,2.89905 -2.76528,-1.76743 -5.91904,-2.70114 -9.13226,-2.70371 -9.91741,1.2e-4 -17.95706,8.68319 -17.95705,19.39416 0.003,0.96826 0.0735,1.9349 0.21033,2.89182 1.73906,-8.96358 9.04689,-15.39166 17.52657,-15.41663 1.49099,0.003 2.9759,0.20566 4.42041,0.60461 1.65506,0.45434 3.24167,1.16134 4.71185,2.09961 1.58385,-1.04479 3.30811,-1.8181 5.11132,-2.29236 1.38173,-0.38284 2.80078,-0.5865 4.22713,-0.60668 8.87728,0.003 16.42016,7.01187 17.74879,16.4915 0.26901,-1.30293 0.41274,-2.63239 0.42891,-3.9672 2e-5,-10.71121 -8.03993,-19.39436 -17.95756,-19.39417 z"
       style="fill:none;stroke:#000000;stroke-width:2"
       id="path1" />
    <ellipse
       style="fill:none;stroke:#000000;stroke-width:2"
       id="path1-9"
       cx="46.965256"
       cy="251.83823"
       rx="17.957247"
       ry="19.394142" />
    <ellipse
       style="fill:none;stroke:#000000;stroke-width:2"
       id="ellipse1-1"
       cx="65.436058"
       cy="251.64331"
       rx="17.957247"
       ry="19.394142" />
    <ellipse
       style="fill:none;stroke:#000000;stroke-width:2"
       id="ellipse2-2"
       cx="46.965256"
       cy="251.83823"
       rx="17.957247"
       ry="19.394142" />
    <ellipse
       style="fill:none;stroke:#000000;stroke-width:2"
       id="ellipse3-7"
       cx="65.436058"
       cy="251.64331"
       rx="17.957247"
       ry="19.394142" />
    <ellipse
       style="fill:none;stroke:#000000;stroke-width:2"
       id="ellipse4-0"
       cx="47.185455"
       cy="244.96866"
       rx="17.957247"
       ry="19.394142" />
    <ellipse
       style="fill:none;stroke:#000000;stroke-width:2"
       id="ellipse5-9"
       cx="65.656288"
       cy="244.77374"
       rx="17.957247"
       ry="19.394142" />
    <ellipse
       style="fill:none;stroke:#000000;stroke-width:2"
       id="ellipse6-3"
       cx="47.185455"
       cy="244.96866"
       rx="17.957247"
       ry="19.394142" />
    <ellipse
       style="fill:none;stroke:#000000;stroke-width:2"
       id="ellipse7-6"
       cx="65.656288"
       cy="244.77374"
       rx="17.957247"
       ry="19.394142" />
    <path
       d="m 45.060126,160.10227 c -0.3616,4.58256 -3.85509,8.10943 -8.05997,8.13697 -1.0458,-0.0156 -2.07908,-0.25163 -3.04323,-0.69505 -1.22174,-0.53589 -2.30643,-1.38794 -3.16104,-2.48305 -0.44283,-0.24009 -0.89987,-0.45101 -1.36839,-0.63149 -1.3239,-0.5117 -2.72551,-0.77473 -4.13877,-0.77669 -1.42128,0.003 -2.83049,0.27052 -4.16047,0.7891 -0.69852,0.27512 -1.37037,0.61788 -2.0066,1.02371 -0.79814,1.20294 -1.85893,2.16815 -3.0856,2.80758 -1.08022,0.55787 -2.25949,0.84881 -3.45405,0.85214 -3.4153702,-0.0251 -6.4531402,-2.38016 -7.6062502,-5.8968 -0.0437,0.29169 -0.074,0.58558 -0.0909,0.88057 -6e-5,4.91692 3.64399,8.90293 8.1390402,8.90282 0.26919,-0.0185 0.53738,-0.0516 0.80356,-0.0992 0.91621,-0.0854 1.81257,-0.33995 2.65101,-0.75293 0.86283,-1.11425 1.90683,-2.06434 3.08508,-2.80758 1.85595,-1.17787 3.98927,-1.80502 6.16655,-1.81281 1.9185,0.002 3.808,0.485 5.50664,1.40767 1.18091,0.63846 2.24953,1.47805 3.16104,2.48357 0.68515,0.29957 1.40436,0.49585 2.13786,0.58342 0.29999,0.0557 0.6026,0.093 0.9064,0.11163 4.49466,-2e-4 8.13832,-3.98581 8.13852,-8.9023 -0.001,-1.0661 -0.17747,-2.12332 -0.52038,-3.12126 z"
       style="fill:none;stroke:#000000;stroke-width:2"
       id="path118" />
    <path
       d="m 69.355851,138.71729 c -0.10887,4.07117 -3.81689,7.32356 -8.36073,7.3334 -1.0122,-0.0153 -2.01299,-0.19473 -2.95382,-0.52969 -1.24653,-0.42231 -2.36276,-1.10489 -3.25614,-1.99109 -0.31502,-0.13742 -0.63494,-0.26359 -0.95911,-0.37827 -1.56555,-0.56174 -3.21776,-0.84991 -4.88291,-0.85163 -1.09953,0.0157 -2.19362,0.15637 -3.26078,0.4191 -1.08209,0.25167 -2.13107,0.62677 -3.12591,1.11776 -0.84474,0.88837 -1.90881,1.58813 -3.10782,2.0438 -1.03274,0.4049 -2.14601,0.61897 -3.27318,0.62942 -2.98436,-0.0173 -5.73347,-1.45522 -7.21817,-3.77548 -0.0116,0.081 -0.0218,0.16212 -0.0305,0.2434 0.0228,3.6964 3.04215,6.82887 7.11947,7.38611 0.41712,0.0712 0.83967,0.11384 1.264,0.12764 1.12761,-0.0106 2.24124,-0.22508 3.27422,-0.63045 0.94182,-0.81164 1.98637,-1.49834 3.1073,-2.04277 1.98031,-0.99385 4.16616,-1.52006 6.38618,-1.53738 2.01283,6.6e-4 4.00312,0.41984 5.84202,1.23042 1.17007,0.51689 2.26517,1.18634 3.25613,1.99058 0.81045,0.2789 1.66436,0.44331 2.53111,0.48731 0.14048,0.0173 0.28144,0.0315 0.42271,0.0424 4.62992,4e-5 8.38334,-3.36376 8.38347,-7.51324 -0.002,-1.33682 -0.40125,-2.64908 -1.15755,-3.80131 z m -15.36805,5.38778 c 0.0267,0.11032 0.0562,0.22016 0.0884,0.32918 -0.009,-0.0299 -0.019,-0.0594 -0.0274,-0.0894 l -0.002,-0.008 c -0.0215,-0.077 -0.0406,-0.1544 -0.0594,-0.23203 z"
       style="fill:none;stroke:#000000;stroke-width:2"
       id="path112" />
    <path
       d="m 458.09567,179.14003 c -0.31471,4.06028 -4.1822,7.12083 -8.72055,6.901 -1.01052,-0.0665 -2.00128,-0.2966 -2.92424,-0.67902 -1.22304,-0.48452 -2.30295,-1.22211 -3.15027,-2.15169 -0.30765,-0.15337 -0.62077,-0.29573 -0.93873,-0.42684 -1.53523,-0.64048 -3.17093,-1.01205 -4.83404,-1.09814 -1.09893,-0.0399 -2.19873,0.0452 -3.27781,0.25358 -1.09368,0.19688 -2.1605,0.51876 -3.17904,0.95916 -0.88832,0.84377 -1.98584,1.48828 -3.20562,1.88248 -1.05217,0.35259 -2.17523,0.51039 -3.30192,0.46398 -2.97945,-0.16847 -5.65206,-1.74358 -7.01737,-4.13584 -0.0157,0.0803 -0.03,0.16081 -0.0428,0.24155 -0.16404,3.69247 2.69269,6.97335 6.73614,7.73633 0.41298,0.0922 0.83284,0.15618 1.25593,0.19143 1.12687,0.0465 2.2501,-0.11132 3.30243,-0.46395 0.98152,-0.76292 2.05932,-1.3959 3.20617,-1.88296 2.02809,-0.8922 4.23777,-1.30696 6.45575,-1.21177 2.01039,0.10243 3.97712,0.62179 5.7728,1.52445 1.14244,0.57543 2.20224,1.29943 3.15125,2.15278 0.79523,0.31916 1.63954,0.52619 2.50275,0.61369 0.13958,0.0246 0.2798,0.046 0.42052,0.0643 4.62381,0.23404 8.54228,-2.93546 8.75236,-7.07945 0.0656,-1.33522 -0.26669,-2.66599 -0.96374,-3.85502 z"
       style="fill:none;stroke:#000000;stroke-width:2"
       id="path7" />
    <path
       d="m 218.3644,240.66597 c -0.21754,-0.002 -0.43569,-0.002 -0.65474,0.003 l -5.2e-4,5.1e-4 c -3.76327,0.0918 -7.42435,1.16412 -10.57972,3.09852 -0.95799,-0.51172 -1.95747,-0.93791 -2.98121,-1.29604 -2.39252,-0.83697 -4.93337,-1.25781 -7.4998,-1.2113 -5.30369,0.0999 -10.07372,2.11635 -13.63431,5.31647 -0.62561,0.56228 -1.21971,1.15388 -1.76578,1.78646 -2.21517,3.51021 -3.77478,7.43094 -4.59559,11.55278 -0.0132,0.37096 -0.0179,0.74348 -0.009,1.11931 0.0126,0.45075 0.0454,0.90111 0.0915,1.34979 -0.0462,-0.44895 -0.0793,-0.89922 -0.092,-1.3503 -0.009,-0.37583 -0.004,-0.74836 0.009,-1.11932 -0.48494,2.26245 -0.74304,4.57217 -0.76997,6.89106 0.0235,6.82221 2.04651,13.47195 5.79396,19.04483 -0.002,-0.007 -0.004,-0.0149 -0.006,-0.0222 0.002,0.007 0.004,0.0149 0.007,0.0222 1.16918,1.74318 2.49551,3.36425 3.96048,4.84053 1.62678,0.99534 3.6097,1.60274 5.76864,1.65623 0.34661,-0.01 0.69272,-0.0343 1.03663,-0.0734 0.44702,-0.0213 0.88959,-0.0747 1.3286,-0.14418 0.7202,-0.11397 1.42776,-0.28415 2.10737,-0.524 1.15439,-1.0865 2.5352,-2.00345 4.07985,-2.70888 2.4324,-1.11798 5.19859,-1.67688 7.9959,-1.6154 2.46465,0.063 4.87246,0.6058 7.01714,1.58182 1.49187,0.67583 2.8316,1.54934 3.96203,2.58382 0.86762,0.32092 1.78295,0.53983 2.72128,0.6506 0.088,0.015 0.17819,0.019 0.26665,0.032 0.29625,0.0437 0.59318,0.0862 0.89297,0.10801 1.65482,0.041 3.22744,-0.25612 4.6421,-0.80409 1.88282,-1.32611 3.62457,-2.861 5.19503,-4.57801 0.11047,-0.15214 0.21968,-0.30529 0.32763,-0.45941 1.39601,-1.98624 2.55434,-4.12407 3.49022,-6.35827 -1.37783,-0.14686 -2.7304,-0.47366 -4.02301,-0.97203 -6.06471,-2.34352 -10.07707,-8.15105 -10.11669,-14.64303 0.0403,-5.43261 2.87272,-10.46383 7.50031,-13.3227 1.55663,-0.99631 3.27606,-1.7127 5.08031,-2.11667 -0.83393,-1.1328 -1.77445,-2.18877 -2.84117,-3.12436 -1.38031,-1.21063 -2.92823,-2.25004 -4.61677,-3.06803 -2.73789,-1.32635 -5.82529,-2.09009 -9.08833,-2.12597 z"
       style="fill:#000000;fill-opacity:1;stroke:#000000;stroke-width:2"
       id="path23" />
    <path
       d="m 228.54827,221.92809 a 17.88559,16.139181 0 0 0 -17.73432,14.75414 17.88559,16.139181 0 0 0 2.07843,0.18449 17.88559,16.139181 0 0 0 17.74104,-14.81926 17.88559,16.139181 0 0 0 -2.08515,-0.11937 z"
       style="fill:#000000;fill-opacity:1;stroke:#000000;stroke-width:2"
       id="path24" />
    <path
       d="m 487.59326,193.74816 c -3.76331,0.0918 -7.42431,1.16357 -10.57971,3.098 -3.19697,-1.70765 -6.81638,-2.57322 -10.48102,-2.50683 -5.30384,0.0999 -10.07418,2.11571 -13.63482,5.31596 -0.62559,0.56225 -1.2192,1.15441 -1.76527,1.78697 -2.74201,3.17627 -4.44125,7.18307 -4.5961,11.55588 -0.48459,2.26147 -0.74249,4.57011 -0.76946,6.88796 0.0234,6.82179 2.04601,13.47102 5.79292,19.04379 1.16929,1.74358 2.49579,3.36497 3.961,4.84157 1.62687,0.99548 3.61004,1.60273 5.76916,1.65623 0.34661,-0.01 0.6927,-0.0348 1.03663,-0.0739 0.4472,-0.0213 0.88992,-0.0747 1.32912,-0.14418 0.72001,-0.11395 1.42742,-0.28421 2.10684,-0.52399 1.15442,-1.08651 2.53519,-2.00293 4.07986,-2.70837 2.43245,-1.11799 5.19857,-1.67688 7.99589,-1.6154 2.46469,0.063 4.87243,0.60528 7.01715,1.5813 1.49188,0.67584 2.83158,1.54933 3.96203,2.58382 0.86762,0.32093 1.78295,0.53984 2.72128,0.65061 0.0879,0.015 0.17785,0.019 0.26613,0.032 0.29644,0.0437 0.59351,0.0867 0.89349,0.10853 1.65484,0.041 3.22741,-0.25663 4.64209,-0.80461 1.88324,-1.32623 3.6253,-2.86125 5.19607,-4.57853 0.10976,-0.15146 0.21829,-0.30391 0.32556,-0.45734 3.9895,-5.67554 6.15526,-12.53733 6.1836,-19.59156 -0.003,-2.00365 -0.17921,-4.00292 -0.52555,-5.97328 0.0204,-0.38653 0.032,-0.77369 0.0279,-1.16117 -0.13416,-5.47169 -2.6582,-10.35927 -6.59495,-13.81208 -1.38056,-1.21085 -2.92893,-2.25048 -4.61781,-3.06855 -2.92025,-1.41452 -6.23756,-2.18888 -9.74204,-2.12286 z m -0.0832,6.87245 c 6.52574,-0.1207 12.47812,2.6908 16.3618,7.22746 1.00513,3.28203 1.51769,6.7084 1.51928,10.15597 -0.0227,8.40652 -3.07926,16.49162 -8.55348,22.62549 -1.39109,0.53361 -2.93321,0.82184 -4.54753,0.79014 -1.34343,-0.0487 -2.66197,-0.3177 -3.88296,-0.79169 -1.54781,-0.5746 -2.90682,-1.46088 -3.95997,-2.58279 -0.5589,-0.25384 -1.13733,-0.47927 -1.73168,-0.67437 -1.67999,-0.55354 -3.46982,-0.86055 -5.28546,-0.90744 -1.82591,-0.0421 -3.64726,0.18035 -5.37693,0.65629 -0.90869,0.25276 -1.78549,0.57371 -2.61948,0.95911 -1.07438,1.17687 -2.47695,2.10817 -4.07882,2.70837 -1.41085,0.52331 -2.93803,0.7768 -4.47311,0.74207 -0.78462,-0.0238 -1.54948,-0.12531 -2.28617,-0.29042 -6.53795,-6.27695 -10.27069,-15.14514 -10.29033,-24.44761 0.004,-1.64382 0.12427,-3.28515 0.35967,-4.91029 3.3152,-6.27199 10.06876,-10.5038 17.78444,-10.66912 1.70068,-0.0295 3.39969,0.14164 5.05706,0.50953 1.89845,0.41876 3.72498,1.09137 5.42447,1.99781 1.78073,-1.07852 3.72844,-1.88855 5.7733,-2.4014 1.56644,-0.41239 3.1797,-0.64633 4.8059,-0.69711 z"
       style="fill:none;stroke:#000000;stroke-width:2"
       id="path20" />
    <path
       d="m 202.48376,67.888363 c -8.89624,0.25007 -16.10683,6.371828 -16.91731,14.362947 -0.0211,0.620248 -0.002,1.242193 0.0558,1.861902 8.85671,-0.293798 16.01193,-6.404783 16.81758,-14.362948 0.0544,-0.618651 0.069,-1.240316 0.0439,-1.861901 z"
       style="stroke:#000000;stroke-width:2"
       id="path9" />
    <path
       d="m 194.58864,89.92216 c -0.21787,-0.0024 -0.4364,-0.0015 -0.65577,0.0026 l -5.2e-4,5.16e-4 c -1.85701,0.04525 -3.68877,0.331119 -5.44773,0.838192 0.01,0.01375 0.0192,0.02762 0.0289,0.04134 -0.0142,-0.01273 -0.0283,-0.02547 -0.0424,-0.03824 -1.80635,0.522006 -3.53577,1.278281 -5.13508,2.257226 -3.20188,-1.7076 -6.82731,-2.573741 -10.49755,-2.50734 -5.31198,0.09988 -10.08939,2.116376 -13.6555,5.316471 -0.62659,0.562267 -1.22194,1.153877 -1.76889,1.786454 -2.21848,3.510046 -3.7807,7.431146 -4.60282,11.552786 -0.48551,2.26196 -0.74456,4.57116 -0.77152,6.8895 0.0235,6.82215 2.04998,13.472 5.80326,19.04483 -0.002,-0.007 -0.004,-0.0144 -0.006,-0.0217 0.002,0.007 0.004,0.0144 0.007,0.0217 1.171,1.74317 2.49943,3.36427 3.96669,4.84053 1.6293,0.99534 3.61512,1.60274 5.77742,1.65623 0.34715,-0.01 0.69374,-0.0343 1.03818,-0.0734 0.44771,-0.0213 0.89098,-0.0747 1.33067,-0.14417 0.72132,-0.11397 1.43032,-0.28416 2.11098,-0.524 1.15621,-1.08651 2.539,-2.00346 4.08606,-2.70888 2.43617,-1.11798 5.20666,-1.67689 8.00829,-1.61541 2.46848,0.063 4.8805,0.6058 7.02851,1.58182 1.49421,0.67583 2.83554,1.54935 3.96772,2.58382 0.86897,0.32092 1.78613,0.53984 2.72593,0.65061 0.0881,0.015 0.17857,0.019 0.26717,0.032 0.29671,0.0437 0.59375,0.0862 0.894,0.108 1.65739,0.041 3.23246,-0.25612 4.64933,-0.80409 1.88574,-1.32608 3.63039,-2.86101 5.2033,-4.57801 0.11064,-0.15214 0.22003,-0.30532 0.32815,-0.4594 1.53485,-2.18038 2.79392,-4.53834 3.77186,-7.0125 h -5.2e-4 c 0.26146,-0.66145 0.49981,-1.33235 0.71985,-2.00969 -1.22559,-0.95422 -2.30376,-2.08341 -3.1998,-3.35122 -1.94148,-2.66711 -2.99889,-5.87363 -3.02411,-9.1705 0.0261,-3.27937 1.07338,-6.4695 2.99672,-9.12812 0.80177,-1.15269 1.75376,-2.19367 2.83084,-3.09542 -0.35405,-0.79527 -0.76617,-1.55991 -1.22422,-2.29702 h 5.2e-4 c -0.36825,-0.592616 -0.75697,-1.17241 -1.18701,-1.722893 -0.0183,0.007 -0.0375,0.01163 -0.0558,0.0186 0.0181,-0.0069 0.0367,-0.01268 0.0548,-0.01964 -0.76554,-0.979651 -1.62266,-1.891244 -2.56367,-2.718697 -0.0105,-0.0092 -0.0195,-0.01976 -0.03,-0.02894 -1.38247,-1.210622 -2.93288,-2.250048 -4.62401,-3.06803 -2.74216,-1.326341 -5.83422,-2.090085 -9.10229,-2.125968 z m 9.45524,9.228377 c 0.021,0.0021 0.042,0.0042 0.063,0.0062 0.0166,-1.88e-4 0.0331,-0.0012 0.0496,-0.0016 -0.0163,2.25e-4 -0.0323,0.0024 -0.0486,0.0026 -0.0207,-0.002 -0.0413,-0.0041 -0.062,-0.0062 -6.9e-4,-3.54e-4 -0.001,-7.83e-4 -0.002,-0.001 z M 152.91625,111.8433 c 0.0221,0.16304 0.0501,0.32543 0.0734,0.48834 0.0399,0.28053 0.0726,0.56192 0.12506,0.84078 -0.001,-0.006 -0.003,-0.0131 -0.004,-0.0196 -0.0511,-0.27269 -0.0825,-0.54788 -0.12144,-0.82217 -0.0231,-0.1626 -0.0508,-0.32462 -0.0729,-0.48731 z"
       style="stroke:#000000;stroke-width:2"
       id="path8" />
    <ellipse
       style="fill:none;stroke:#000000;stroke-width:2"
       id="ellipse11"
       cx="-10.047999"
       cy="298.79324"
       rx="17.913548"
       ry="16.139181" />
    <ellipse
       style="fill:none;stroke:#000000;stroke-width:2"
       id="ellipse12"
       cx="7.9528742"
       cy="309.99539"
       rx="17.913548"
       ry="16.139181" />
    <ellipse
       style="fill:none;stroke:#000000;stroke-width:2"
       id="ellipse13"
       cx="-7.8421087"
       cy="301.62622"
       rx="17.913548"
       ry="16.139181" />
    <ellipse
       style="fill:none;stroke:#000000;stroke-width:2"
       id="ellipse14"
       cx="10.158769"
       cy="312.82837"
       rx="17.913548"
       ry="16.139181" />
    <ellipse
       style="fill:none;stroke:#000000;stroke-width:2;stroke-dasharray:none;stroke-opacity:1"
       id="ellipse24"
       cx="382.91129"
       cy="268.56293"
       rx="17.639475"
       ry="17.609564" />
  </g>
</svg>
