<?xml version="1.0" encoding="UTF-8" standalone="no"?>
<!-- Created with Inkscape (http://www.inkscape.org/) -->

<svg
   width="63.845654mm"
   height="75.715248mm"
   viewBox="0 0 63.845653 75.715249"
   version="1.1"
   id="svg5"
   sodipodi:docname="apple-logo-complete.svg"
   inkscape:version="1.3.2 (091e20ef0f, 2023-11-25, custom)"
   xmlns:inkscape="http://www.inkscape.org/namespaces/inkscape"
   xmlns:sodipodi="http://sodipodi.sourceforge.net/DTD/sodipodi-0.dtd"
   xmlns="http://www.w3.org/2000/svg"
   xmlns:svg="http://www.w3.org/2000/svg">
  <sodipodi:namedview
     id="namedview1"
     pagecolor="#ffffff"
     bordercolor="#666666"
     borderopacity="1.0"
     inkscape:showpageshadow="2"
     inkscape:pageopacity="0.0"
     inkscape:pagecheckerboard="0"
     inkscape:deskcolor="#d1d1d1"
     inkscape:document-units="mm"
     inkscape:zoom="1.2912002"
     inkscape:cx="118.10717"
     inkscape:cy="130.49874"
     inkscape:current-layer="svg5" />
  <defs
     id="defs2" />
  <g
     id="layer1"
     transform="matrix(0.43874809,0,0,0.44168862,-49.659966,-11.762611)"
     style="stroke-width:2.27161">
    <path
       d="m 202.48376,67.888363 c -8.89624,0.25007 -16.10683,6.371828 -16.91731,14.362947 -0.0211,0.620248 -0.002,1.242193 0.0558,1.861902 8.85671,-0.293798 16.01193,-6.404783 16.81758,-14.362948 0.0544,-0.618651 0.069,-1.240316 0.0439,-1.861901 z"
       style="stroke:#000000;stroke-width:4.54322"
       id="path9" />
    <path
       d="m 194.58864,89.92216 c -0.21787,-0.0024 -0.4364,-0.0015 -0.65577,0.0026 l -5.2e-4,5.16e-4 c -1.85701,0.04525 -3.68877,0.331119 -5.44773,0.838192 0.01,0.01375 0.0192,0.02762 0.0289,0.04134 -0.0142,-0.01273 -0.0283,-0.02547 -0.0424,-0.03824 -1.80635,0.522006 -3.53577,1.278281 -5.13508,2.257226 -3.20188,-1.7076 -6.82731,-2.573741 -10.49755,-2.50734 -5.31198,0.09988 -10.08939,2.116376 -13.6555,5.316471 -0.62659,0.562267 -1.22194,1.153877 -1.76889,1.786454 -2.21848,3.510051 -3.7807,7.431151 -4.60282,11.552791 -0.48551,2.26196 -0.74456,4.57116 -0.77152,6.8895 0.0235,6.82215 2.04998,13.472 5.80326,19.04483 -0.002,-0.007 -0.004,-0.0144 -0.006,-0.0217 0.002,0.007 0.004,0.0144 0.007,0.0217 1.171,1.74317 2.49943,3.36427 3.96669,4.84053 1.6293,0.99534 3.61512,1.60274 5.77742,1.65623 0.34715,-0.01 0.69374,-0.0343 1.03818,-0.0734 0.44771,-0.0213 0.89098,-0.0747 1.33067,-0.14417 0.72132,-0.11397 1.43032,-0.28417 2.11098,-0.524 1.15621,-1.08651 2.539,-2.00346 4.08606,-2.70888 2.43617,-1.11798 5.20666,-1.67689 8.00829,-1.61541 2.46848,0.063 4.8805,0.6058 7.02851,1.58182 1.49421,0.67583 2.83554,1.54935 3.96772,2.58382 0.86897,0.32092 1.78613,0.53984 2.72593,0.65061 0.0881,0.015 0.17857,0.019 0.26717,0.032 0.29671,0.0437 0.59375,0.0862 0.894,0.108 1.65739,0.041 3.23246,-0.25612 4.64933,-0.80409 1.88574,-1.32608 3.63039,-2.86101 5.2033,-4.57801 0.11064,-0.15214 0.22003,-0.30532 0.32815,-0.4594 1.53485,-2.18038 2.79392,-4.53834 3.77186,-7.0125 h -5.2e-4 c 0.26146,-0.66145 0.49981,-1.33235 0.71985,-2.00969 -1.22559,-0.95422 -2.30376,-2.08341 -3.1998,-3.35122 -1.94148,-2.66711 -2.99889,-5.87363 -3.02411,-9.1705 0.0261,-3.27937 1.07338,-6.4695 2.99672,-9.12812 0.80177,-1.15269 1.75376,-2.19367 2.83084,-3.09542 -0.35405,-0.79527 -0.76617,-1.55991 -1.22422,-2.297025 h 5.2e-4 c -0.36825,-0.592616 -0.75697,-1.17241 -1.18701,-1.722893 -0.0183,0.007 -0.0375,0.01163 -0.0558,0.0186 0.0181,-0.0069 0.0367,-0.01268 0.0548,-0.01964 -0.76554,-0.979651 -1.62266,-1.891244 -2.56367,-2.718697 -0.0105,-0.0092 -0.0195,-0.01976 -0.03,-0.02894 -1.38247,-1.210622 -2.93288,-2.250048 -4.62401,-3.06803 -2.74216,-1.326341 -5.83422,-2.090085 -9.10229,-2.125968 z m 9.45524,9.228377 c 0.021,0.0021 0.042,0.0042 0.063,0.0062 0.0166,-1.88e-4 0.0331,-0.0012 0.0496,-0.0016 -0.0163,2.25e-4 -0.0323,0.0024 -0.0486,0.0026 -0.0207,-0.002 -0.0413,-0.0041 -0.062,-0.0062 -6.9e-4,-3.54e-4 -0.001,-7.83e-4 -0.002,-0.001 z M 152.91625,111.8433 c 0.0221,0.16304 0.0501,0.32543 0.0734,0.48834 0.0399,0.28053 0.0726,0.56192 0.12506,0.84078 -0.001,-0.006 -0.003,-0.0131 -0.004,-0.0196 -0.0511,-0.27269 -0.0825,-0.54788 -0.12144,-0.82217 -0.0231,-0.1626 -0.0508,-0.32462 -0.0729,-0.48731 z"
       style="stroke:#000000;stroke-width:4.54322"
       id="path8" />
  </g>
</svg>
