<?xml version="1.0" encoding="UTF-8" standalone="no"?>
<!-- Created with Inkscape (http://www.inkscape.org/) -->

<svg
   width="827.09735mm"
   height="400.80634mm"
   viewBox="0 0 827.09735 400.80634"
   version="1.1"
   id="svg5"
   inkscape:version="1.3.2 (091e20ef0f, 2023-11-25, custom)"
   sodipodi:docname="apple_logo_v2.svg"
   xmlns:inkscape="http://www.inkscape.org/namespaces/inkscape"
   xmlns:sodipodi="http://sodipodi.sourceforge.net/DTD/sodipodi-0.dtd"
   xmlns:xlink="http://www.w3.org/1999/xlink"
   xmlns="http://www.w3.org/2000/svg"
   xmlns:svg="http://www.w3.org/2000/svg"
   xmlns:rdf="http://www.w3.org/1999/02/22-rdf-syntax-ns#"
   xmlns:cc="http://creativecommons.org/ns#">
  <sodipodi:namedview
     id="namedview7"
     pagecolor="#16ee25"
     bordercolor="#666666"
     borderopacity="1.0"
     inkscape:pageshadow="2"
     inkscape:pageopacity="0.0"
     inkscape:pagecheckerboard="false"
     inkscape:document-units="mm"
     showgrid="false"
     inkscape:zoom="0.57600353"
     inkscape:cx="1316.8322"
     inkscape:cy="480.03178"
     inkscape:current-layer="layer1"
     inkscape:showpageshadow="2"
     inkscape:deskcolor="#6e067f"
     showguides="true"
     inkscape:clip-to-page="false"
     showborder="true"
     inkscape:lockguides="false">
    <inkscape:page
       x="0"
       y="0"
       width="827.09729"
       height="400.80634"
       id="page9"
       margin="0"
       bleed="0" />
  </sodipodi:namedview>
  <defs
     id="defs2">
    <color-profile
       name="Best-RGB"
       xlink:href="file:///usr/share/color/icc/colord/BestRGB.icc"
       id="color-profile2" />
  </defs>
  <g
     inkscape:label="Layer 1"
     inkscape:groupmode="layer"
     id="layer1"
     transform="translate(21.927323,-30.860162)"
     style="display:inline">
    <ellipse
       style="fill:none;stroke:#000000;stroke-width:2"
       id="path1-9"
       cx="-1.8046447"
       cy="57.819572"
       rx="4.9361734"
       ry="5.302175" />
    <ellipse
       style="fill:none;stroke:#000000;stroke-width:2"
       id="ellipse1-1"
       cx="3.2726943"
       cy="57.766289"
       rx="4.9361734"
       ry="5.302175" />
    <ellipse
       style="fill:none;stroke:#000000;stroke-width:2"
       id="ellipse2-2"
       cx="-1.8046447"
       cy="57.819572"
       rx="4.9361734"
       ry="5.302175" />
    <ellipse
       style="fill:none;stroke:#000000;stroke-width:2"
       id="ellipse3-7"
       cx="3.2726943"
       cy="57.766289"
       rx="4.9361734"
       ry="5.302175" />
    <ellipse
       style="fill:none;stroke:#000000;stroke-width:2"
       id="ellipse4-0"
       cx="-1.7441169"
       cy="55.941498"
       rx="4.9361734"
       ry="5.302175" />
    <ellipse
       style="fill:none;stroke:#000000;stroke-width:2"
       id="ellipse5-9"
       cx="3.3332298"
       cy="55.888214"
       rx="4.9361734"
       ry="5.302175" />
    <ellipse
       style="fill:none;stroke:#000000;stroke-width:2"
       id="ellipse6-3"
       cx="-1.7441169"
       cy="55.941498"
       rx="4.9361734"
       ry="5.302175" />
    <ellipse
       style="fill:none;stroke:#000000;stroke-width:2"
       id="ellipse7-6"
       cx="3.3332298"
       cy="55.888214"
       rx="4.9361734"
       ry="5.302175" />
    <ellipse
       style="fill:none;stroke:#000000;stroke-width:2;stroke-dasharray:none"
       id="path1"
       cx="33.442307"
       cy="60.08194"
       rx="4.130733"
       ry="4.3940272" />
    <ellipse
       style="fill:none;stroke:#000000;stroke-width:2;stroke-dasharray:none"
       id="ellipse1"
       cx="37.520477"
       cy="54.224159"
       rx="2.7412672"
       ry="2.9215724" />
    <ellipse
       style="fill:none;stroke:#000000;stroke-width:2;stroke-dasharray:none"
       id="ellipse2"
       cx="29.378761"
       cy="54.364212"
       rx="2.7412672"
       ry="2.9215724" />
    <ellipse
       style="fill:none;stroke:#000000;stroke-width:2;stroke-dasharray:none"
       id="ellipse3"
       cx="33.278847"
       cy="58.463158"
       rx="4.130733"
       ry="4.3940272" />
    <ellipse
       style="fill:none;stroke:#000000;stroke-width:2;stroke-dasharray:none"
       id="ellipse4"
       cx="37.357025"
       cy="52.605377"
       rx="2.7412672"
       ry="2.9215724" />
    <ellipse
       style="fill:none;stroke:#000000;stroke-width:2;stroke-dasharray:none"
       id="ellipse5"
       cx="29.215302"
       cy="52.74543"
       rx="2.7412672"
       ry="2.9215724" />
    <path
       style="fill:none;stroke:#000000;stroke-width:0.264583px;stroke-linecap:butt;stroke-linejoin:miter;stroke-opacity:1"
       d="m 87.123517,57.809368 12.52151,0.344269 -4.30815,-5.256998 4.33884,5.253266 -3.8864,3.99846 0.14984,0.342555 v 0"
       id="path5" />
    <path
       style="fill:none;stroke:#000000;stroke-width:0.264583px;stroke-linecap:butt;stroke-linejoin:miter;stroke-opacity:1"
       d="m 42.193735,56.59218 12.52151,0.344269 -4.30814,-5.256998 4.33884,5.253265 -3.88642,3.998462 0.14985,0.342554 v 0"
       id="path6" />
    <path
       style="fill:none;stroke:#000000;stroke-width:0.264583px;stroke-linecap:butt;stroke-linejoin:miter;stroke-opacity:1"
       d="m 12.672959,57.210399 12.521504,0.344268 -4.308139,-5.256998 4.338838,5.253266 -3.88641,3.998463 0.149845,0.342555 v 0"
       id="path7" />
    <path
       d="m 72.944125,48.926431 c -0.90721,0.0058 -1.7954,0.280004 -2.567,0.792557 -0.7601,-0.483258 -1.627,-0.73859 -2.51027,-0.73936 -2.72617,-7e-6 -4.93619,2.373872 -4.93618,5.302186 10e-4,0.264628 0.0203,0.528809 0.058,0.790325 0.47816,-2.450394 2.48687,-4.207592 4.81768,-4.214444 0.40986,7.46e-4 0.81803,0.05626 1.21511,0.165356 0.45493,0.124213 0.89105,0.317496 1.29516,0.574003 0.43534,-0.285665 0.90926,-0.49712 1.4049,-0.626827 0.37986,-0.104631 0.76998,-0.160267 1.1621,-0.165729 2.44032,9.06e-4 4.513792,1.917137 4.878902,4.508886 0.0739,-0.35627 0.11337,-0.719789 0.11776,-1.084767 0,-2.928307 -2.210012,-5.302192 -4.936192,-5.302186 z"
       style="fill:none;stroke:#000000;stroke-width:2"
       id="path18" />
    <path
       d="m 77.494247,61.26435 c -0.22279,1.399741 -1.357512,2.42616 -2.689612,2.432916 -0.5416,-0.0061 -1.06937,-0.183055 -1.51669,-0.508529 -0.091,-0.06208 -0.17851,-0.129847 -0.26202,-0.202932 -0.24547,-0.175932 -0.508,-0.323285 -0.78307,-0.439525 -0.48282,-0.202735 -0.99724,-0.306854 -1.51632,-0.306902 -0.39419,0.0053 -0.78565,0.07041 -1.16247,0.193624 -0.27395,0.08388 -0.539,0.197706 -0.79091,0.339647 -0.26801,0.34419 -0.6066,0.61821 -0.98967,0.800923 -0.35185,0.171179 -0.73371,0.261063 -1.12048,0.263748 -1.1086,-0.0062 -2.10456,-0.723512 -2.52352,-1.817427 -0.0324,0.169506 -0.0505,0.34174 -0.0543,0.514671 0.004,1.585353 1.19258,2.878508 2.67972,2.914098 0.0205,0.0027 0.041,0.0053 0.0616,0.0075 0.38669,-0.0027 0.7685,-0.09248 1.1203,-0.263566 0.29004,-0.318714 0.62377,-0.588882 0.98986,-0.801297 0.59971,-0.346636 1.27085,-0.529786 1.95338,-0.533084 0.81907,5.32e-4 1.61945,0.26062 2.29938,0.746426 0.0898,0.06397 0.17721,0.131669 0.26202,0.202932 0.36089,0.256316 0.77368,0.417724 1.20447,0.470953 0.10331,0.01886 0.20756,0.03143 0.31222,0.03756 1.513962,2.7e-5 2.741292,-1.307998 2.741312,-2.92154 -5.4e-4,-0.388213 -0.0737,-0.772409 -0.21518,-1.130154 z"
       style="fill:none;stroke:#000000;stroke-width:2"
       id="path23" />
    <ellipse
       style="fill:none;stroke:#000000;stroke-width:2;stroke-dasharray:none"
       id="path24"
       cx="72.888504"
       cy="56.706291"
       rx="10.613784"
       ry="10.454686" />
    <ellipse
       style="fill:none;stroke:#000000;stroke-width:2;stroke-dasharray:none"
       id="ellipse24"
       cx="74.437103"
       cy="56.052956"
       rx="10.613784"
       ry="10.454686" />
    <ellipse
       style="fill:none;stroke:#000000;stroke-width:2;stroke-dasharray:none"
       id="ellipse25"
       cx="66.545273"
       cy="56.738449"
       rx="10.613784"
       ry="10.454686" />
    <ellipse
       style="fill:none;stroke:#000000;stroke-width:2;stroke-dasharray:none"
       id="ellipse26"
       cx="68.215034"
       cy="57.534256"
       rx="10.613784"
       ry="10.454686" />
    <path
       d="m 0.97999612,96.329053 c -0.907188,0.006 -1.795416,0.28001 -2.56700602,0.79255 -0.76008,-0.48325 -1.627025,-0.73859 -2.510268,-0.73936 -0.487674,0 -0.957715,0.0789 -1.402659,0.22042 -0.903594,0.28739 -1.696588,0.84594 -2.302744,1.586775 -0.265274,0.37017 -0.505852,0.75695 -0.720183,1.15787 -0.01726,0.0376 -0.03451,0.0752 -0.05092,0.11327 -0.031,0.0716 -0.06116,0.14352 -0.09051,0.21576 -0.667649,1.385572 -1.017643,2.898932 -1.025121,4.432632 0.0087,2.06718 0.639374,4.08553 1.812299,5.79974 h 1.87e-4 c 0.0021,0.003 0.0048,0.006 0.0067,0.009 -0.0021,-0.003 -0.0048,-0.006 -0.0069,-0.009 -2.98e-4,0.01 -0.0016,0.0191 -0.0016,0.0287 0.0037,1.58532 1.192605,2.87851 2.679724,2.9141 0.0205,0.003 0.04101,0.005 0.06158,0.008 0.09299,-5.3e-4 0.185625,-0.007 0.2777,-0.0177 h 1.81e-4 c 0.29069,-0.0336 0.575137,-0.1162 0.842233,-0.24608 0.168438,-0.1851 0.353163,-0.35167 0.548859,-0.50221 0.141265,-0.10868 0.287515,-0.21004 0.440993,-0.29909 0.599711,-0.34663 1.270864,-0.52979 1.953383,-0.53308 0.81905902,5.3e-4 1.61945702,0.26062 2.299382,0.74642 0.05321,0.0379 0.103797,0.0797 0.155272,0.12016 0.03542,0.0279 0.07219,0.0537 0.106748,0.0828 0.36088,0.25631 0.773683,0.41773 1.204471,0.47096 0.103307,0.0189 0.207557,0.0314 0.312217,0.0376 0.106231,0 0.210635,-0.008 0.313714,-0.0205 1.366017,-0.16606 2.427582,-1.40076 2.427593,-2.90107 -1.12e-4,-0.0608 -0.0053,-0.12124 -0.0088,-0.18173 v -1.9e-4 c 0.739933,-1.45186 1.126191,-3.05361 1.128135,-4.67815 -0.0016,-1.61757 -0.383771,-3.21278 -1.117126,-4.6601 v -1.9e-4 -1.8e-4 c -0.402992,-1.639732 -1.515463,-2.966437 -2.966562,-3.578317 -0.343262,-0.14475 -0.705149,-0.24738 -1.080926,-0.30653 -0.23564,-0.0371 -0.474764,-0.0629 -0.71999198,-0.0629 z m -0.06047,1.878055 c 1.17703698,3.5e-4 2.26639398,0.4496 3.12220798,1.20214 0.756895,1.465992 1.151978,3.087222 1.153145,4.731902 -0.01124,2.55725 -0.973635,5.0218 -2.705107,6.92729 0.115951,0.0173 0.232717,0.0302 0.350665,0.0316 0.0037,-2e-5 0.0069,-5.3e-4 0.01044,-5.3e-4 -0.0037,3e-5 -0.0069,5.3e-4 -0.01044,5.3e-4 -0.117948,-0.001 -0.234714,-0.0145 -0.350665,-0.0318 -0.416462,-0.0622 -0.816125,-0.22232 -1.166023,-0.47691 -0.09101,-0.0621 -0.17851,-0.12985 -0.262015,-0.20293 -0.24546698,-0.17592 -0.50800398,-0.32328 -0.78307198,-0.43952 -0.482812,-0.20273 -0.997244,-0.30686 -1.51631602,-0.3069 -0.394183,0.005 -0.78566,0.0704 -1.162476,0.19363 -0.273939,0.0839 -0.539,0.1977 -0.790912,0.33963 -0.268001,0.34419 -0.606602,0.61822 -0.98966,0.80093 -0.157205,0.0765 -0.321069,0.13395 -0.488021,0.17744 -2.202056,-1.97286 -3.461885,-4.76603 -3.472127,-7.69808 0.01118,-1.35648 0.29028,-2.69792 0.821702,-3.949392 0.862072,-0.77847 1.968738,-1.24252 3.161401,-1.24603 0.409841,5.4e-4 0.818042,0.0565 1.215102,0.16555 0.454925,0.12421 0.891055,0.31731 1.295166,0.57382 0.435321,-0.28567 0.90927602,-0.49695 1.40490202,-0.62665 0.379856,-0.10463 0.769992,-0.16045 1.162103,-0.16591 z"
       style="fill:none;stroke:#000000;stroke-width:2"
       id="path66" />
    <ellipse
       style="fill:none;stroke:#000000;stroke-width:2"
       id="ellipse66"
       cx="9.0962076"
       cy="104.20354"
       rx="6.4591665"
       ry="5.8090839" />
    <path
       style="fill:none;stroke:#000000;stroke-width:0.264583px;stroke-linecap:butt;stroke-linejoin:miter;stroke-opacity:1"
       d="m 48.040125,104.52956 12.52151,0.34427 -4.30814,-5.257002 4.33884,5.253272 -3.88641,3.99846 0.14984,0.34255 v 0"
       id="path68" />
    <path
       style="fill:none;stroke:#000000;stroke-width:0.264583px;stroke-linecap:butt;stroke-linejoin:miter;stroke-opacity:1"
       d="m 17.030396,103.32036 12.521504,0.34427 -4.308144,-5.257002 4.338838,5.253272 -3.886405,3.99846 0.14984,0.34256 v 0"
       id="path69" />
    <path
       d="m 42.308955,95.703783 c -0.90711,0.006 -1.79528,0.28005 -2.566814,0.79255 -0.760075,-0.48324 -1.627025,-0.73859 -2.510268,-0.73936 -0.487675,0 -0.95772,0.0789 -1.40266,0.22042 -0.903593,0.28738 -1.696587,0.84594 -2.302743,1.58678 -0.265274,0.37017 -0.505846,0.756955 -0.720178,1.157865 -0.01726,0.0376 -0.03451,0.0752 -0.05097,0.11327 -0.031,0.0716 -0.06116,0.14352 -0.09051,0.21577 -0.667649,1.385552 -1.017637,2.898932 -1.02512,4.432622 0.0087,2.06718 0.639378,4.08554 1.812293,5.79974 h 1.92e-4 c 0.0021,0.003 0.0048,0.006 0.0067,0.009 -0.0021,-0.003 -0.0048,-0.006 -0.0069,-0.009 -2.98e-4,0.01 -0.0016,0.0191 -0.0016,0.0287 0.0037,1.58532 1.192611,2.87851 2.679724,2.91409 0.0205,0.003 0.04101,0.005 0.06158,0.008 0.09298,-5.3e-4 0.185625,-0.007 0.277695,-0.0177 h 1.91e-4 c 0.290685,-0.0336 0.575138,-0.1162 0.842228,-0.24609 0.168438,-0.18509 0.353168,-0.35166 0.548859,-0.5022 0.141265,-0.10868 0.287515,-0.21004 0.440993,-0.29909 0.599711,-0.34663 1.270869,-0.52979 1.953378,-0.53309 0.81906,5.4e-4 1.61946,0.26063 2.29939,0.74643 0.0532,0.0379 0.10379,0.0797 0.15526,0.12016 0.0354,0.0279 0.0722,0.0537 0.10675,0.0828 0.36088,0.25631 0.77368,0.41773 1.20447,0.47095 0.10331,0.0189 0.20757,0.0314 0.31223,0.0376 0.10622,0 0.21063,-0.008 0.3137,-0.0204 1.36602,-0.16607 2.42759,-1.40077 2.4276,-2.90109 -1.1e-4,-0.0608 -0.005,-0.12122 -0.009,-0.18172 v -1.8e-4 c 0.061,-0.11974 0.11588,-0.24194 0.17208,-0.36364 -0.57411,-0.29885 -1.09361,-0.67546 -1.54021,-1.11657 -1.10578,-1.06843 -1.72381,-2.47209 -1.73111,-3.93172 0.008,-1.48035 0.64446,-2.90204 1.77889,-3.974692 0.31632,-0.30004 0.66736,-0.56885 1.04714,-0.80185 -0.52983,-1.242585 -1.49169,-2.226415 -2.68233,-2.728465 -0.34327,-0.14475 -0.70515,-0.24738 -1.08093,-0.30654 -0.23558,-0.0371 -0.47464,-0.0628 -0.7198,-0.0629 z m 1.80036,14.405697 c -0.0942,0.11294 -0.19086,0.22417 -0.2902,0.3335 0.11588,0.0173 0.23259,0.0304 0.35047,0.0318 -0.11794,-0.002 -0.23471,-0.0143 -0.35066,-0.0316 v -1.9e-4 c 0.0993,-0.10933 0.1962,-0.22055 0.29039,-0.3335 z"
       style="fill:none;stroke:#000000;stroke-width:2"
       id="path71" />
    <path
       d="m 2.5805161,142.4804 c -0.907113,0.006 -1.79528198,0.28004 -2.56681298,0.79255 -0.760081,-0.48325 -1.62702602,-0.73859 -2.51026802,-0.73936 -0.487675,0 -0.957721,0.0789 -1.40266,0.22042 -0.903593,0.28739 -1.696593,0.84594 -2.302749,1.58678 -0.265274,0.37017 -0.505846,0.75695 -0.720178,1.15787 -0.01726,0.0376 -0.03451,0.0752 -0.05097,0.11327 -0.031,0.0716 -0.06116,0.14352 -0.09051,0.21577 -0.667644,1.38556 -1.017632,2.89893 -1.025115,4.43262 0.0087,2.06718 0.639373,4.08553 1.812293,5.79975 h 1.87e-4 c 0.0021,0.003 0.0048,0.006 0.0067,0.009 -0.0021,-0.003 -0.0048,-0.006 -0.0069,-0.009 -2.93e-4,0.01 -0.0016,0.0191 -0.0016,0.0287 0.0037,1.58532 1.192616,2.87851 2.679723,2.9141 0.0205,0.003 0.04101,0.005 0.06159,0.008 0.09298,-5.4e-4 0.185624,-0.007 0.277694,-0.0177 h 1.86e-4 c 0.290685,-0.0336 0.575137,-0.1162 0.842228,-0.24609 0.168443,-0.18509 0.353168,-0.35166 0.548864,-0.5022 0.141265,-0.10868 0.28751,-0.21004 0.440988,-0.2991 0.59971602,-0.34663 1.27086902,-0.52978 1.95338802,-0.53308 0.81905898,5.3e-4 1.61945698,0.26064 2.29938698,0.74643 0.05321,0.0379 0.103787,0.0797 0.155267,0.12016 0.03542,0.0279 0.07218,0.0537 0.106748,0.0828 0.360875,0.25631 0.773678,0.41772 1.204466,0.47096 0.103307,0.0189 0.207568,0.0314 0.312222,0.0376 0.106231,0 0.210636,-0.008 0.313714,-0.0205 1.366012,-0.16607 2.427583,-1.40078 2.427593,-2.90108 -1.11e-4,-0.0608 -0.0053,-0.12123 -0.0089,-0.18173 v -1.8e-4 c 0.06102,-0.11974 0.115871,-0.24194 0.172065,-0.36364 -0.574104,-0.29885 -1.093596,-0.67546 -1.540202,-1.11657 -1.105782,-1.06843 -1.723803,-2.4721 -1.731116,-3.93172 0.0081,-1.48035 0.64447,-2.90204 1.778895,-3.97469 0.316323,-0.30004 0.667355,-0.56885 1.047143,-0.80185 -0.52983,-1.2426 -1.491699,-2.22642 -2.682339,-2.72848 -0.343262,-0.14474 -0.705143,-0.24738 -1.08092,-0.30653 -0.235582,-0.0371 -0.474642,-0.0628 -0.719805,-0.0629 z m 1.800358,14.4057 c -0.09418,0.11295 -0.19086,0.22417 -0.290199,0.3335 0.115887,0.0173 0.232594,0.0304 0.350478,0.0318 -0.117948,-0.002 -0.234714,-0.0143 -0.350665,-0.0316 v -1.9e-4 c 0.09934,-0.10932 0.196202,-0.22056 0.290386,-0.3335 z"
       style="fill:none;stroke:#000000;stroke-width:2"
       id="path75" />
    <ellipse
       style="fill:none;stroke:#000000;stroke-width:2"
       id="ellipse76"
       cx="1.4743394"
       cy="135.22438"
       rx="6.4591665"
       ry="5.8090839" />
    <ellipse
       style="fill:none;stroke:#000000;stroke-width:2"
       id="ellipse77"
       cx="7.1283045"
       cy="141.46558"
       rx="6.4591665"
       ry="5.8090839" />
    <ellipse
       style="fill:none;stroke:#000000;stroke-width:2"
       id="ellipse78"
       cx="1.4743394"
       cy="135.22438"
       rx="6.4591665"
       ry="5.8090839" />
    <path
       d="m 36.587138,141.68954 c -0.587563,0.004 -1.166593,0.12182 -1.711714,0.34262 -0.296462,0.12008 -0.583312,0.2694 -0.855105,0.44994 -0.76007,-0.48324 -1.627026,-0.73859 -2.510268,-0.73936 -0.48767,0 -0.957721,0.0789 -1.40266,0.22041 -0.903588,0.28739 -1.696593,0.84595 -2.302743,1.58679 -0.265274,0.37017 -0.505852,0.75695 -0.720184,1.15786 -0.01726,0.0376 -0.03451,0.0752 -0.05092,0.11328 -0.031,0.0716 -0.06116,0.14351 -0.09051,0.21576 -0.667649,1.38556 -1.017637,2.89894 -1.02512,4.43263 0.0087,2.06717 0.639384,4.08554 1.812299,5.79974 h 1.86e-4 c 0.0021,0.003 0.0048,0.006 0.0067,0.009 -0.0021,-0.003 -0.0048,-0.006 -0.0069,-0.009 -2.98e-4,0.01 -0.0016,0.0191 -0.0016,0.0287 0.0037,1.58532 1.192615,2.87852 2.679723,2.91411 0.0205,0.003 0.04101,0.005 0.06158,0.008 0.09298,-5.4e-4 0.185625,-0.007 0.277699,-0.0177 h 1.81e-4 c 0.290685,-0.0336 0.575143,-0.1162 0.842233,-0.24608 0.168438,-0.1851 0.353168,-0.35167 0.548865,-0.50221 0.141259,-0.10868 0.28751,-0.21004 0.440987,-0.2991 0.599711,-0.34663 1.270875,-0.52978 1.953383,-0.53308 0.819065,5.3e-4 1.619463,0.26064 2.299388,0.74643 0.05321,0.0379 0.103791,0.0797 0.155267,0.12016 0.03542,0.0279 0.07219,0.0537 0.106753,0.0828 0.360874,0.25631 0.773677,0.41772 1.204465,0.47096 0.103308,0.0189 0.207563,0.0314 0.312223,0.0376 0.106226,0 0.210635,-0.008 0.313713,-0.0205 1.366006,-0.16607 2.427576,-1.40078 2.427586,-2.90108 -1.1e-4,-0.0608 -0.005,-0.12123 -0.009,-0.18173 v -1.8e-4 c 0.061,-0.11974 0.11587,-0.24194 0.17207,-0.36364 -0.57411,-0.29885 -1.0936,-0.67547 -1.540201,-1.11657 -1.105777,-1.06842 -1.723809,-2.4721 -1.731116,-3.93172 0.0066,-1.19471 0.428376,-2.34779 1.184866,-3.31345 0.180869,-0.23087 0.375143,-0.45427 0.594023,-0.66123 0.316318,-0.30004 0.667358,-0.56886 1.047138,-0.80187 -0.52983,-1.24258 -1.491694,-2.22641 -2.682328,-2.72847 -0.343262,-0.14474 -0.705149,-0.24738 -1.08092,-0.30652 -0.235582,-0.0371 -0.474647,-0.0629 -0.719805,-0.0629 z"
       style="fill:none;stroke:#000000;stroke-width:2"
       id="path81" />
    <path
       d="m 41.888165,134.90808 a 6.4591667,5.8090839 0 0 0 -0.75321,-0.0424 6.4591667,5.8090839 0 0 0 -6.404534,5.31056 6.4591667,5.8090839 0 0 0 0.7506,0.0664 6.4591667,5.8090839 0 0 0 6.407144,-5.33455 z"
       style="fill:none;stroke:#000000;stroke-width:2"
       id="path82" />
    <path
       style="fill:none;stroke:#000000;stroke-width:0.264583px;stroke-linecap:butt;stroke-linejoin:miter;stroke-opacity:1"
       d="m 11.086036,150.48415 12.521503,0.34427 -4.308139,-5.257 4.338838,5.25327 -3.88641,3.99846 0.149845,0.34256 v 0"
       id="path83" />
    <path
       style="fill:none;stroke:#000000;stroke-width:0.264583px;stroke-linecap:butt;stroke-linejoin:miter;stroke-opacity:1"
       d="m 43.790435,150.85599 12.52151,0.34427 -4.30814,-5.25701 4.33883,5.25327 -3.88641,3.99846 0.14985,0.34256 v 0"
       id="path84" />
    <path
       d="m 75.494285,136.94963 c -3.34059,0.0143 -6.11786,2.31724 -6.40449,5.31058 0.24853,0.0352 0.49914,0.0574 0.75054,0.0663 3.35105,-0.0142 6.13353,-2.33079 6.40724,-5.33453 -0.24996,-0.0273 -0.50149,-0.0415 -0.75329,-0.0424 z m -4.54782,6.82372 c -0.58756,0.004 -1.16651,0.12197 -1.71163,0.34277 -0.29646,0.12009 -0.58333,0.26933 -0.85512,0.44987 -0.76007,-0.48325 -1.62709,-0.73846 -2.51033,-0.73923 -0.48767,0 -0.95761,0.0787 -1.40255,0.22025 -0.90358,0.28739 -1.69666,0.84609 -2.30281,1.58693 -0.26527,0.37017 -0.50594,0.7568 -0.72026,1.1577 -0.0173,0.0376 -0.0345,0.0753 -0.0509,0.11344 -0.031,0.0716 -0.0612,0.14332 -0.0906,0.21557 -0.66765,1.38555 -1.01746,2.89891 -1.02494,4.43259 0.009,2.06717 0.63917,4.08562 1.81209,5.79982 h 2.7e-4 c 0.002,0.003 0.005,0.006 0.007,0.01 -0.002,-0.003 -0.005,-0.006 -0.007,-0.01 -3e-4,0.01 -0.002,0.019 -0.002,0.0286 0.004,1.58531 1.1925,2.87864 2.6796,2.91423 0.0205,0.003 0.0411,0.005 0.0617,0.008 0.093,-5.3e-4 0.18563,-0.007 0.2777,-0.0179 h 2.8e-4 c 0.29068,-0.0336 0.5751,-0.11624 0.84219,-0.24613 0.16843,-0.18509 0.3531,-0.35163 0.54879,-0.50218 0.14126,-0.10867 0.28744,-0.20994 0.44092,-0.29899 0.59971,-0.34663 1.27104,-0.52971 1.95355,-0.53301 0.81906,5.3e-4 1.61931,0.26059 2.29923,0.74638 0.0532,0.0379 0.10375,0.0796 0.15523,0.12003 0.0354,0.0279 0.0722,0.0538 0.10678,0.0829 0.36088,0.25631 0.77361,0.41783 1.20439,0.47106 0.10331,0.0189 0.20772,0.0313 0.31238,0.0375 0.10623,0 0.21068,-0.008 0.31376,-0.0204 1.366,-0.16607 2.42747,-1.40098 2.42748,-2.90128 -1.1e-4,-0.0608 -0.005,-0.12121 -0.009,-0.18171 0.061,-0.11973 0.11582,-0.24199 0.17201,-0.36369 -0.5741,-0.29885 -1.09355,-0.67558 -1.54016,-1.11669 -1.10577,-1.06842 -1.72386,-2.4719 -1.73116,-3.93152 0.007,-1.1947 0.42835,-2.34777 1.18484,-3.31343 0.18087,-0.23087 0.37506,-0.45435 0.59394,-0.66131 0.31632,-0.30004 0.66745,-0.56899 1.04723,-0.802 -0.52983,-1.24258 -1.49172,-2.22633 -2.68235,-2.72839 -0.34326,-0.14473 -0.70503,-0.24727 -1.08081,-0.30642 -0.23558,-0.0371 -0.47483,-0.063 -0.71999,-0.0631 z"
       style="fill:#000000;fill-opacity:1;stroke:#000000;stroke-width:2"
       id="path87" />
  </g>
  <metadata
     id="metadata1">
    <rdf:RDF>
      <cc:Work
         rdf:about="" />
    </rdf:RDF>
  </metadata>
</svg>
