<?xml version="1.0" encoding="UTF-8" standalone="no"?>
<!-- Created with Inkscape (http://www.inkscape.org/) -->

<svg
   width="2767.2546mm"
   height="1110.9803mm"
   viewBox="0 0 2767.2547 1110.9804"
   version="1.1"
   id="svg5"
   inkscape:version="1.3.2 (091e20ef0f, 2023-11-25, custom)"
   sodipodi:docname="Nasa rocek.svg"
   xmlns:inkscape="http://www.inkscape.org/namespaces/inkscape"
   xmlns:sodipodi="http://sodipodi.sourceforge.net/DTD/sodipodi-0.dtd"
   xmlns="http://www.w3.org/2000/svg"
   xmlns:svg="http://www.w3.org/2000/svg">
  <sodipodi:namedview
     id="namedview7"
     pagecolor="#ffffff"
     bordercolor="#666666"
     borderopacity="1.0"
     inkscape:pageshadow="2"
     inkscape:pageopacity="0.0"
     inkscape:pagecheckerboard="0"
     inkscape:document-units="mm"
     showgrid="false"
     inkscape:zoom="0.14533412"
     inkscape:cx="4018.3268"
     inkscape:cy="2232.7861"
     inkscape:current-layer="layer1"
     inkscape:showpageshadow="2"
     inkscape:deskcolor="#d1d1d1" />
  <defs
     id="defs2" />
  <g
     inkscape:label="Layer 1"
     inkscape:groupmode="layer"
     id="layer1"
     transform="translate(-2626.913,310.90534)">
    <path
       d="m 3862.5673,-61.923118 c -27.6968,14.42 -45.2877,44.53275 -45.3006,77.547201 0.076,0.83467 0.1637,1.66819 0.2625,2.50011 h -0.2625 v 82.181547 209.40995 l -2.296,-3.9796 -21.192,36.27479 -21.192,36.27479 19.82,0.0543 22.3671,0.0615 24.4512,0.0672 11.8825,0.0326 5.8529,0.016 c 2.5263,-0.0653 5.032,-0.22673 7.4843,-0.48214 0.3988,0.12436 0.7976,0.2482 1.2004,0.25063 l 18.0175,0.0496 13.6313,0.0372 c 0.088,-0.0654 0.1753,-0.13035 0.2635,-0.19482 0.013,0.0652 0.026,0.13053 0.039,0.19586 l 10.235,0.0279 32.4404,0.0889 1.7601,0.005 7.9866,0.0217 -20.9951,-36.39055 -20.9951,-36.39054 -2.7037,4.62814 V 100.94748 18.124113 h -0.2475 c 0.093,-0.83192 0.1757,-1.66544 0.2475,-2.50011 -0.018,-33.023131 -16.6231,-63.138121 -42.7576,-77.547201 z m -21.2964,78.276361 h 40.0503 v 26.86089 h -40.0503 z m 0,66.69412 h 40.0503 v 26.860887 h -40.0503 z m -19.4784,76.828377 h 79.0066 v 26.86038 h -79.0066 z m 15.6177,38.38319 h 47.7712 V 303.5264 h -47.7712 z"
       style="fill:#0000ff;stroke:#1a38a7;stroke-width:5.00001;stroke-opacity:0.854483"
       id="path57" />
    <path
       d="m 1379.0707,643.27774 c -6.0784,2.47186 -11.5258,6.4558 -15.8962,11.62565 -7.1666,8.04363 -11.2466,18.69691 -11.4251,29.83229 0.091,18.53593 10.9239,35.04545 27.1389,41.3582 16.2148,-6.31293 27.048,-22.82241 27.1384,-41.3582 -0.01,-15.59541 -7.6598,-30.03292 -20.1342,-37.99872 -2.1706,-1.37508 -4.4541,-2.53302 -6.8218,-3.45922 z"
       style="fill:none;stroke:#ff000e;stroke-width:4.99999;stroke-opacity:1"
       id="path26" />
    <ellipse
       style="fill:none;stroke:#000000;stroke-width:5.00001;stroke-dasharray:none;stroke-opacity:1"
       id="ellipse11"
       cx="1034.6437"
       cy="233.0945"
       rx="82.717094"
       ry="86.244972" />
    <ellipse
       style="fill:none;stroke:#000000;stroke-width:5.00001;stroke-dasharray:none;stroke-opacity:1"
       id="ellipse12"
       cx="975.5614"
       cy="233.0945"
       rx="82.717094"
       ry="86.244972" />
    <rect
       style="fill:none;stroke:#000000;stroke-width:4.99999;stroke-dasharray:none;stroke-opacity:1"
       id="rect12"
       width="101.78007"
       height="337.11572"
       x="956.49841"
       y="235.5945" />
    <path
       sodipodi:type="star"
       style="fill:none;stroke:#000000;stroke-width:30.4384;stroke-dasharray:none;stroke-opacity:1"
       id="path12"
       inkscape:flatsided="false"
       sodipodi:sides="3"
       sodipodi:cx="356.69653"
       sodipodi:cy="1569.5405"
       sodipodi:r1="295.72964"
       sodipodi:r2="147.86482"
       sodipodi:arg1="1.0208135"
       sodipodi:arg2="2.0680111"
       inkscape:rounded="0"
       inkscape:randomized="0"
       d="M 511.26631,1821.66 286.16806,1699.5011 61.069814,1577.3422 279.41165,1443.4808 l 218.34182,-133.8613 6.75642,256.0202 z"
       transform="matrix(-0.0047894,0.16374097,-0.16465326,-0.00477302,1317.5357,520.7359)"
       inkscape:transform-center-x="-2.4356413"
       inkscape:transform-center-y="0.7496606" />
    <path
       sodipodi:type="star"
       style="fill:none;stroke:#000000;stroke-width:30.4384;stroke-dasharray:none;stroke-opacity:1"
       id="path13"
       inkscape:flatsided="false"
       sodipodi:sides="3"
       sodipodi:cx="356.69653"
       sodipodi:cy="1569.5405"
       sodipodi:r1="295.72964"
       sodipodi:r2="147.86482"
       sodipodi:arg1="1.0208135"
       sodipodi:arg2="2.0680111"
       inkscape:rounded="0"
       inkscape:randomized="0"
       d="M 511.26631,1821.66 286.16806,1699.5011 61.069814,1577.3422 279.41165,1443.4808 l 218.34182,-133.8613 6.75642,256.0202 z"
       transform="matrix(-0.0047894,0.16374097,-0.16465326,-0.00477302,1214.2091,520.7359)"
       inkscape:transform-center-x="-2.4356413"
       inkscape:transform-center-y="0.7496606" />
    <ellipse
       style="fill:none;stroke:#000000;stroke-width:4.99999;stroke-dasharray:none;stroke-opacity:1"
       id="ellipse13"
       cx="1060.1986"
       cy="661.17603"
       rx="41.155537"
       ry="44.234524" />
    <ellipse
       style="fill:none;stroke:#000000;stroke-width:4.99999;stroke-dasharray:none;stroke-opacity:1"
       id="ellipse14"
       cx="1088.2321"
       cy="661.17603"
       rx="41.155537"
       ry="44.234524" />
    <ellipse
       style="fill:none;stroke:#000000;stroke-width:4.99999;stroke-dasharray:none;stroke-opacity:1"
       id="ellipse15"
       cx="960.70886"
       cy="661.17603"
       rx="41.155537"
       ry="44.234524" />
    <ellipse
       style="fill:none;stroke:#000000;stroke-width:4.99999;stroke-dasharray:none;stroke-opacity:1"
       id="ellipse16"
       cx="988.74255"
       cy="661.17603"
       rx="41.155537"
       ry="44.234524" />
    <path
       d="m 4533.5144,16.590233 c -5.991,2.71767 -11.3692,7.0715 -15.706,12.71499 -3.6702,4.54825 -6.5743,9.90006 -8.5535,15.76235 -1.9222,5.61666 -2.9603,11.61031 -3.0618,17.6785 0.09,20.63618 10.924,39.016207 27.1389,46.044217 16.2148,-7.02822 27.048,-25.408197 27.1384,-46.044217 -0.022,-14.76687 -5.5801,-28.74336 -15.1432,-38.07674 -3.2026,-3.1344 -6.7818,-5.67303 -10.617,-7.53029 -0.3962,-0.19036 -0.7948,-0.37328 -1.1958,-0.54881 z"
       style="fill:#ff0000;stroke:#ff0000;stroke-width:4.99999"
       id="path59" />
    <rect
       style="fill:#f9f9f9;stroke:#fbfff5;stroke-width:4.99999;stroke-dasharray:none;stroke-opacity:1"
       id="rect28"
       width="40.050594"
       height="26.860619"
       x="1425.9406"
       y="403.50229" />
    <rect
       style="fill:#f9f9f9;stroke:#fbfff5;stroke-width:4.99999;stroke-dasharray:none;stroke-opacity:1"
       id="rect29"
       width="40.050594"
       height="26.860619"
       x="1425.9406"
       y="403.50229" />
    <path
       d="m 3821.7925,159.87574 v 26.86038 h 79.0066 v -26.86038 z"
       style="fill:#f9f9f9;stroke:#fbfff5;stroke-width:5"
       id="path55" />
    <path
       d="m 3841.2709,83.047363 v 26.860887 h 40.0503 V 83.047363 Z"
       style="fill:#f9f9f9;stroke:#fbfff5;stroke-width:4.99999"
       id="path54" />
    <path
       d="m 3841.2709,16.353243 v 26.86089 h 40.0503 v -26.86089 z"
       style="fill:#f9f9f9;stroke:#fbfff5;stroke-width:4.99999"
       id="path53" />
    <path
       d="m 3837.4102,303.5264 v 0 h 47.7712 v 0 z"
       style="fill:#00ffff;stroke:#fbfff5"
       id="path56" />
    <path
       sodipodi:type="star"
       style="fill:#ff0000;stroke:#fbfff5;stroke-width:17.7017;stroke-dasharray:none;stroke-opacity:1"
       id="path60"
       inkscape:flatsided="false"
       sodipodi:sides="100"
       sodipodi:cx="3515.9116"
       sodipodi:cy="1569.1851"
       sodipodi:r1="834.84131"
       sodipodi:r2="417.42065"
       sodipodi:arg1="-0.81852125"
       sodipodi:arg2="-0.78710532"
       inkscape:rounded="0"
       inkscape:randomized="0"
       d="m 4086.3601,959.6372 -275.7918,313.8834 312.9399,-276.86184 -294.9564,295.94694 329.7067,-256.6659 -312.9571,276.8425 345.1723,-235.457 -329.7226,256.6455 359.2757,-213.3188 -345.1869,235.4356 371.9611,-190.3387 -359.2889,213.2965 383.1786,-166.6075 -371.9729,190.3157 392.8839,-142.2188 -383.189,166.5838 401.0386,-117.2688 -392.8927,142.1945 407.6106,-91.856 -401.0458,117.244 412.5739,-66.0806 -407.6162,91.8306 415.909,-40.0444 -412.578,66.055 417.6028,-13.8503 -415.9116,40.0187 417.6484,12.3986 -417.6036,13.8244 416.0457,38.5984 -417.6476,-12.4244 412.8012,64.646 -416.0434,-38.6242 407.9275,90.4384 -412.7972,-64.6715 401.4438,115.8739 -407.9218,-90.4637 393.3758,140.8522 -401.4366,-115.8988 383.7555,165.2745 -393.3672,-140.8765 372.6205,189.0445 -383.7452,-165.2982 360.0151,212.0685 -372.6089,-189.0676 345.9888,234.2556 -360.0019,-212.0909 330.597,255.5182 -345.9743,-234.277 313.9005,275.7723 -330.5811,-255.5386 295.9652,294.9381 -313.8834,-275.7918 276.8618,312.94 -295.9469,-294.9565 256.6659,329.7067 -276.8425,-312.9571 235.4569,345.1724 -256.6454,-329.7227 213.3188,359.2757 -235.4356,-345.1869 190.3387,371.9611 -213.2965,-359.2889 166.6075,383.1786 -190.3157,-371.9729 142.2188,392.8839 -166.5838,-383.1889 117.2687,401.0386 -142.1944,-392.8927 91.8559,407.6106 -117.2439,-401.0459 66.0806,412.574 -91.8307,-407.6163 40.0445,415.9091 -66.055,-412.5781 13.8503,417.6028 -40.0187,-415.9116 -12.3986,417.6485 -13.8244,-417.6037 -38.5984,416.0458 12.4244,-417.6477 -64.646,412.8012 38.6242,-416.0434 -90.4385,407.9275 64.6716,-412.7972 -115.8739,401.4438 90.4636,-407.9218 -140.8521,393.3759 115.8988,-401.4367 -165.2745,383.7555 140.8765,-393.3672 -189.0445,372.6206 165.2982,-383.7452 -212.0685,360.015 189.0676,-372.6088 -234.2556,345.9887 212.0908,-360.0019 -255.5182,330.597 234.2771,-345.9742 -275.7723,313.9005 255.5386,-330.5812 -294.9381,295.9652 275.7918,-313.8834 -312.94,276.8619 294.9565,-295.947 -329.7068,256.6659 312.9571,-276.8425 -345.1723,235.457 329.7227,-256.6455 -359.2757,213.3188 345.1869,-235.4356 -371.9611,190.3388 359.2889,-213.2966 -383.1787,166.6075 371.973,-190.3157 -392.8839,142.2188 383.1889,-166.5838 -401.0386,117.2688 392.8927,-142.1945 -407.6106,91.856 401.0459,-117.2439 -412.574,66.0806 407.6163,-91.8307 -415.9091,40.0444 412.5781,-66.055 -417.6028,13.8503 415.9115,-40.0187 -417.6484,-12.3985 417.6037,-13.8245 -416.0458,-38.5984 417.6476,12.4244 -412.8011,-64.646 416.0433,38.6242 -407.9274,-90.4384 412.7972,64.6715 -401.4439,-115.8739 407.9219,90.4637 -393.3759,-140.8522 401.4366,115.8988 -383.7554,-165.2745 393.3671,140.8766 -372.6205,-189.0446 383.7452,165.2983 -360.015,-212.0686 372.6088,189.0676 -345.9887,-234.2556 360.0019,212.0909 -330.597,-255.5182 345.9742,234.277 -313.9005,-275.7723 330.5812,255.5387 -295.9652,-294.93818 313.8834,275.79178 -276.8619,-312.93996 295.947,294.95646 -256.6659,-329.70673 276.8425,312.95713 -235.457,-345.17235 256.6455,329.72265 -213.3188,-359.27568 235.4356,345.18688 -190.3388,-371.96109 213.2966,359.28889 -166.6076,-383.17862 190.3157,371.97292 -142.2187,-392.88387 166.5837,383.18897 -117.2687,-401.03864 142.1944,392.89264 -91.8559,-407.61056 117.2439,401.04586 -66.0806,-412.57396 91.8307,407.61626 -40.0445,-415.90904 66.0551,412.57804 -13.8503,-417.60278 40.0187,415.91158 12.3985,-417.64843 13.8245,417.60363 38.5984,-416.04576 -12.4244,417.64766 64.646,-412.8012 -38.6242,416.0434 90.4384,-407.92748 -64.6716,412.79718 115.874,-401.44383 -90.4637,407.92183 L 3772.5359,774.76454 3656.6371,1176.2012 3821.9116,792.44572 3681.0351,1185.8129 3870.0797,813.19234 3704.7814,1196.9376 3916.85,836.92251 3727.7823,1209.5313 3962.038,863.54259 3749.9471,1223.5445 4005.4653,892.94752 3771.1882,1238.9218 4046.9606,925.02125 3791.4219,1255.6024 Z"
       transform="matrix(0.03979387,0,0,0.1403506,3679.3808,294.9942)"
       inkscape:transform-center-x="3.0940921e-05"
       inkscape:transform-center-y="2.3582952e-05" />
    <path
       sodipodi:type="star"
       style="fill:#ff0000;stroke:#fbfff5;stroke-width:17.7017;stroke-dasharray:none;stroke-opacity:1"
       id="path61"
       inkscape:flatsided="false"
       sodipodi:sides="100"
       sodipodi:cx="3515.9116"
       sodipodi:cy="1569.1851"
       sodipodi:r1="834.84131"
       sodipodi:r2="417.42065"
       sodipodi:arg1="-0.81852125"
       sodipodi:arg2="-0.78710532"
       inkscape:rounded="0"
       inkscape:randomized="0"
       d="m 4086.3601,959.6372 -275.7918,313.8834 312.9399,-276.86184 -294.9564,295.94694 329.7067,-256.6659 -312.9571,276.8425 345.1723,-235.457 -329.7226,256.6455 359.2757,-213.3188 -345.1869,235.4356 371.9611,-190.3387 -359.2889,213.2965 383.1786,-166.6075 -371.9729,190.3157 392.8839,-142.2188 -383.189,166.5838 401.0386,-117.2688 -392.8927,142.1945 407.6106,-91.856 -401.0458,117.244 412.5739,-66.0806 -407.6162,91.8306 415.909,-40.0444 -412.578,66.055 417.6028,-13.8503 -415.9116,40.0187 417.6484,12.3986 -417.6036,13.8244 416.0457,38.5984 -417.6476,-12.4244 412.8012,64.646 -416.0434,-38.6242 407.9275,90.4384 -412.7972,-64.6715 401.4438,115.8739 -407.9218,-90.4637 393.3758,140.8522 -401.4366,-115.8988 383.7555,165.2745 -393.3672,-140.8765 372.6205,189.0445 -383.7452,-165.2982 360.0151,212.0685 -372.6089,-189.0676 345.9888,234.2556 -360.0019,-212.0909 330.597,255.5182 -345.9743,-234.277 313.9005,275.7723 -330.5811,-255.5386 295.9652,294.9381 -313.8834,-275.7918 276.8618,312.94 -295.9469,-294.9565 256.6659,329.7067 -276.8425,-312.9571 235.4569,345.1724 -256.6454,-329.7227 213.3188,359.2757 -235.4356,-345.1869 190.3387,371.9611 -213.2965,-359.2889 166.6075,383.1786 -190.3157,-371.9729 142.2188,392.8839 -166.5838,-383.1889 117.2687,401.0386 -142.1944,-392.8927 91.8559,407.6106 -117.2439,-401.0459 66.0806,412.574 -91.8307,-407.6163 40.0445,415.9091 -66.055,-412.5781 13.8503,417.6028 -40.0187,-415.9116 -12.3986,417.6485 -13.8244,-417.6037 -38.5984,416.0458 12.4244,-417.6477 -64.646,412.8012 38.6242,-416.0434 -90.4385,407.9275 64.6716,-412.7972 -115.8739,401.4438 90.4636,-407.9218 -140.8521,393.3759 115.8988,-401.4367 -165.2745,383.7555 140.8765,-393.3672 -189.0445,372.6206 165.2982,-383.7452 -212.0685,360.015 189.0676,-372.6088 -234.2556,345.9887 212.0908,-360.0019 -255.5182,330.597 234.2771,-345.9742 -275.7723,313.9005 255.5386,-330.5812 -294.9381,295.9652 275.7918,-313.8834 -312.94,276.8619 294.9565,-295.947 -329.7068,256.6659 312.9571,-276.8425 -345.1723,235.457 329.7227,-256.6455 -359.2757,213.3188 345.1869,-235.4356 -371.9611,190.3388 359.2889,-213.2966 -383.1787,166.6075 371.973,-190.3157 -392.8839,142.2188 383.1889,-166.5838 -401.0386,117.2688 392.8927,-142.1945 -407.6106,91.856 401.0459,-117.2439 -412.574,66.0806 407.6163,-91.8307 -415.9091,40.0444 412.5781,-66.055 -417.6028,13.8503 415.9115,-40.0187 -417.6484,-12.3985 417.6037,-13.8245 -416.0458,-38.5984 417.6476,12.4244 -412.8011,-64.646 416.0433,38.6242 -407.9274,-90.4384 412.7972,64.6715 -401.4439,-115.8739 407.9219,90.4637 -393.3759,-140.8522 401.4366,115.8988 -383.7554,-165.2745 393.3671,140.8766 -372.6205,-189.0446 383.7452,165.2983 -360.015,-212.0686 372.6088,189.0676 -345.9887,-234.2556 360.0019,212.0909 -330.597,-255.5182 345.9742,234.277 -313.9005,-275.7723 330.5812,255.5387 -295.9652,-294.93818 313.8834,275.79178 -276.8619,-312.93996 295.947,294.95646 -256.6659,-329.70673 276.8425,312.95713 -235.457,-345.17235 256.6455,329.72265 -213.3188,-359.27568 235.4356,345.18688 -190.3388,-371.96109 213.2966,359.28889 -166.6076,-383.17862 190.3157,371.97292 -142.2187,-392.88387 166.5837,383.18897 -117.2687,-401.03864 142.1944,392.89264 -91.8559,-407.61056 117.2439,401.04586 -66.0806,-412.57396 91.8307,407.61626 -40.0445,-415.90904 66.0551,412.57804 -13.8503,-417.60278 40.0187,415.91158 12.3985,-417.64843 13.8245,417.60363 38.5984,-416.04576 -12.4244,417.64766 64.646,-412.8012 -38.6242,416.0434 90.4384,-407.92748 -64.6716,412.79718 115.874,-401.44383 -90.4637,407.92183 L 3772.5359,774.76454 3656.6371,1176.2012 3821.9116,792.44572 3681.0351,1185.8129 3870.0797,813.19234 3704.7814,1196.9376 3916.85,836.92251 3727.7823,1209.5313 3962.038,863.54259 3749.9471,1223.5445 4005.4653,892.94752 3771.1882,1238.9218 4046.9606,925.02125 3791.4219,1255.6024 Z"
       transform="matrix(0.03979387,0,0,0.1403506,3789.7074,294.9942)"
       inkscape:transform-center-x="3.0940921e-05"
       inkscape:transform-center-y="2.3582952e-05" />
    <rect
       style="fill:#ff0000;stroke:#fbfff5;stroke-width:5;stroke-dasharray:none;stroke-opacity:1"
       id="rect61"
       width="123.44333"
       height="295.59094"
       x="1185.7697"
       y="208.55099" />
    <text
       xml:space="preserve"
       style="font-style:normal;font-variant:normal;font-weight:normal;font-stretch:normal;font-size:43.1033px;line-height:1.25;font-family:Tangerine;-inkscape-font-specification:Tangerine;letter-spacing:0px;word-spacing:0px;stroke-width:0.264583;fill:#ff0000"
       x="3182.2056"
       y="113.85905"
       id="text62"
       transform="scale(1.1986782,0.83425226)"><tspan
         sodipodi:role="line"
         id="tspan62"
         style="font-style:normal;font-variant:normal;font-weight:normal;font-stretch:normal;font-size:43.1033px;font-family:Tangerine;-inkscape-font-specification:Tangerine;stroke-width:0.264583;fill:#ff0000"
         x="3182.2056"
         y="113.85905" /><tspan
         sodipodi:role="line"
         style="font-style:normal;font-variant:normal;font-weight:normal;font-stretch:normal;font-size:43.1033px;font-family:Tangerine;-inkscape-font-specification:Tangerine;stroke-width:0.264583;fill:#ff0000"
         x="3182.2056"
         y="167.73819"
         id="tspan63" /><tspan
         sodipodi:role="line"
         style="font-style:normal;font-variant:normal;font-weight:normal;font-stretch:normal;font-size:43.1033px;font-family:Tangerine;-inkscape-font-specification:Tangerine;stroke-width:0.264583;fill:#ff0000"
         x="3182.2056"
         y="221.61731"
         id="tspan64">Nasa</tspan></text>
  </g>
</svg>
